<svg width="544" height="544" viewBox="0 0 544 544" fill="none" xmlns="http://www.w3.org/2000/svg">
<path d="M166.172 164.62C165.72 164.824 165.204 165.342 164.624 166.174" stroke="#1C4696" stroke-width="2"/>
<path d="M164.637 377.447C165.157 378.253 165.605 378.703 165.98 378.797" stroke="#7E2D3C" stroke-width="2"/>
<path d="M378.89 165.899C378.434 165.174 377.979 164.69 377.527 164.447" stroke="#7E2D3C" stroke-width="2"/>
<path d="M271.805 196.56L271.799 245.317" stroke="#848D9C" stroke-width="2"/>
<path d="M253.714 252.591L234.031 232.677C233.835 232.476 233.64 232.478 233.449 232.683L232.681 233.502C232.472 233.728 232.476 233.95 232.694 234.167L252.441 253.851" stroke="#97B9F9" stroke-width="2"/>
<path d="M164.624 166.174L180.041 181.565" stroke="#97B9F9" stroke-width="2"/>
<path d="M199.385 200.916L212.403 213.857C212.603 214.053 212.81 214.06 213.023 213.876L213.855 213.179C213.902 213.139 213.94 213.089 213.967 213.034C213.995 212.978 214.01 212.917 214.012 212.855C214.015 212.793 214.004 212.731 213.981 212.674C213.959 212.616 213.924 212.564 213.88 212.52L200.818 199.406" stroke="#97B9F9" stroke-width="2"/>
<path d="M181.589 180.151L166.172 164.62" stroke="#97B9F9" stroke-width="2"/>
<path d="M377.528 164.447L335.359 206.718C335.112 206.965 335.11 207.215 335.353 207.466L335.916 208.049C336.18 208.321 336.449 208.324 336.722 208.055L378.89 165.899" stroke="#F9A0A0" stroke-width="2"/>
<path d="M291.137 253.62L313.891 230.918C314.117 230.692 314.117 230.463 313.891 230.233L313.187 229.51C313.139 229.46 313.081 229.42 313.017 229.393C312.953 229.365 312.884 229.351 312.814 229.35C312.745 229.35 312.676 229.363 312.611 229.389C312.547 229.416 312.488 229.455 312.439 229.504L289.787 252.29" stroke="#F9A0A0" stroke-width="2"/>
<path d="M272.943 245.298V196.598" stroke="#848D9C" stroke-width="2"/>
<path d="M181.588 180.151L180.04 181.565" stroke="#1C4696" stroke-width="2"/>
<path d="M200.818 199.406C200.204 199.722 199.726 200.225 199.385 200.916" stroke="#1C4696" stroke-width="2"/>
<path d="M252.442 289.559L164.637 377.447" stroke="#F9A0A0" stroke-width="2"/>
<path d="M347.539 346.178L346.01 347.445" stroke="#1C4696" stroke-width="2"/>
<path d="M253.804 290.979L165.98 378.796" stroke="#F9A0A0" stroke-width="2"/>
<path d="M289.832 291.215L346.01 347.445" stroke="#97B9F9" stroke-width="2"/>
<path d="M347.539 346.178L291.169 289.866" stroke="#97B9F9" stroke-width="2"/>
<path d="M374.431 20.4191C374.431 19.9085 374.228 19.4187 373.867 19.0576C373.506 18.6965 373.016 18.4937 372.506 18.4937C371.995 18.4937 371.505 18.6965 371.144 19.0576C370.783 19.4187 370.58 19.9085 370.58 20.4191C370.58 20.9298 370.783 21.4196 371.144 21.7807C371.505 22.1418 371.995 22.3446 372.506 22.3446C373.016 22.3446 373.506 22.1418 373.867 21.7807C374.228 21.4196 374.431 20.9298 374.431 20.4191Z" stroke="#848D9C" stroke-width="2"/>
<path d="M167.221 22.997C167.221 22.488 167.019 21.9999 166.659 21.64C166.299 21.2801 165.811 21.0779 165.302 21.0779C164.793 21.0779 164.305 21.2801 163.945 21.64C163.585 21.9999 163.383 22.488 163.383 22.997C163.383 23.5059 163.585 23.9941 163.945 24.354C164.305 24.7139 164.793 24.9161 165.302 24.9161C165.811 24.9161 166.299 24.7139 166.659 24.354C167.019 23.9941 167.221 23.5059 167.221 22.997Z" stroke="#848D9C" stroke-width="2"/>
<path d="M522.777 165.125C522.777 164.609 522.572 164.114 522.207 163.75C521.843 163.385 521.348 163.18 520.832 163.18C520.317 163.18 519.822 163.385 519.457 163.75C519.093 164.114 518.888 164.609 518.888 165.125C518.888 165.641 519.093 166.135 519.457 166.5C519.822 166.865 520.317 167.07 520.832 167.07C521.348 167.07 521.843 166.865 522.207 166.5C522.572 166.135 522.777 165.641 522.777 165.125Z" stroke="#848D9C" stroke-width="2"/>
<path d="M22.5345 171.336C22.5345 170.827 22.3323 170.339 21.9724 169.979C21.6125 169.619 21.1244 169.417 20.6154 169.417C20.1064 169.417 19.6183 169.619 19.2584 169.979C18.8985 170.339 18.6963 170.827 18.6963 171.336C18.6963 171.845 18.8985 172.333 19.2584 172.693C19.6183 173.053 20.1064 173.255 20.6154 173.255C21.1244 173.255 21.6125 173.053 21.9724 172.693C22.3323 172.333 22.5345 171.845 22.5345 171.336Z" stroke="#848D9C" stroke-width="2"/>
<path d="M525.323 372.335C525.323 371.832 525.123 371.348 524.767 370.992C524.41 370.636 523.927 370.436 523.423 370.436C522.919 370.436 522.436 370.636 522.08 370.992C521.724 371.348 521.523 371.832 521.523 372.335C521.523 372.839 521.724 373.323 522.08 373.679C522.436 374.035 522.919 374.235 523.423 374.235C523.927 374.235 524.41 374.035 524.767 373.679C525.123 373.323 525.323 372.839 525.323 372.335Z" stroke="#848D9C" stroke-width="2"/>
<path d="M25.1503 378.56C25.1503 378.041 24.9441 377.543 24.577 377.176C24.2099 376.809 23.712 376.602 23.1928 376.602C22.6737 376.602 22.1758 376.809 21.8087 377.176C21.4416 377.543 21.2354 378.041 21.2354 378.56C21.2354 379.079 21.4416 379.577 21.8087 379.944C22.1758 380.311 22.6737 380.517 23.1928 380.517C23.712 380.517 24.2099 380.311 24.577 379.944C24.9441 379.577 25.1503 379.079 25.1503 378.56Z" stroke="#848D9C" stroke-width="2"/>
<path d="M380.624 520.681C380.624 520.177 380.424 519.694 380.068 519.338C379.711 518.981 379.228 518.781 378.724 518.781C378.22 518.781 377.737 518.981 377.381 519.338C377.024 519.694 376.824 520.177 376.824 520.681C376.824 520.931 376.873 521.178 376.969 521.408C377.064 521.639 377.204 521.848 377.381 522.025C377.557 522.201 377.767 522.341 377.997 522.436C378.228 522.532 378.475 522.581 378.724 522.581C378.974 522.581 379.221 522.532 379.451 522.436C379.682 522.341 379.891 522.201 380.068 522.025C380.244 521.848 380.384 521.639 380.479 521.408C380.575 521.178 380.624 520.931 380.624 520.681Z" stroke="#848D9C" stroke-width="2"/>
<path d="M173.445 523.259C173.445 522.754 173.245 522.269 172.887 521.911C172.53 521.554 172.045 521.353 171.539 521.353C171.034 521.353 170.549 521.554 170.191 521.911C169.834 522.269 169.633 522.754 169.633 523.259C169.633 523.765 169.834 524.25 170.191 524.607C170.549 524.965 171.034 525.165 171.539 525.165C172.045 525.165 172.53 524.965 172.887 524.607C173.245 524.25 173.445 523.765 173.445 523.259Z" stroke="#848D9C" stroke-width="2"/>
<path d="M230.378 213.563C230.414 213.562 230.449 213.572 230.479 213.592C230.509 213.612 230.532 213.64 230.546 213.673C230.56 213.706 230.563 213.742 230.556 213.777C230.549 213.812 230.531 213.845 230.506 213.87L226.086 218.232C225.949 218.365 225.798 218.384 225.631 218.29C222.974 216.81 220.392 216.608 217.885 217.682C214.449 219.154 212.415 222.486 212.85 226.165C213.899 234.935 225.772 236.349 228.855 228.173C229.768 225.76 229.525 223.371 228.126 221.009C227.951 220.714 227.985 220.448 228.229 220.209L232.483 215.981C232.764 215.703 232.903 215.763 232.898 216.16L232.847 220.842C232.843 221.112 232.928 221.375 233.09 221.591C233.525 222.171 233.967 222.427 234.414 222.358C235.301 222.222 235.747 221.708 235.751 220.817L235.783 212.347C235.788 211.226 235.227 210.665 234.101 210.665L225.58 210.684C224.599 210.688 224.122 211.179 224.147 212.155L224.154 212.437C224.16 212.733 224.283 213.015 224.496 213.223C224.708 213.431 224.994 213.548 225.292 213.55L230.378 213.563Z" stroke="#97B9F9" stroke-width="2"/>
<path d="M327.119 224.879V223.536C327.119 223.267 327.249 223.103 327.509 223.043C333.19 221.655 335.877 215.124 332.371 210.268C326.895 202.682 314.907 208.528 317.818 217.574C318.722 220.38 320.709 222.212 323.78 223.069C323.968 223.124 324.087 223.246 324.138 223.433C324.266 223.881 324.307 224.369 324.26 224.898C324.238 225.163 324.096 225.297 323.831 225.301L320.671 225.346C320.387 225.35 320.114 225.456 319.903 225.646C319.691 225.835 319.555 226.094 319.52 226.376C319.503 226.5 319.494 226.621 319.494 226.741C319.49 226.93 319.523 227.118 319.593 227.295C319.662 227.471 319.766 227.632 319.898 227.768C320.03 227.904 320.188 228.012 320.363 228.086C320.537 228.16 320.725 228.198 320.914 228.199L323.812 228.225C324.093 228.229 324.234 228.372 324.234 228.653L324.253 230.899C324.257 231.171 324.356 231.432 324.533 231.638C324.709 231.844 324.952 231.981 325.219 232.024L325.59 232.088C325.776 232.119 325.967 232.109 326.148 232.058C326.33 232.008 326.499 231.918 326.643 231.796C326.787 231.674 326.903 231.522 326.983 231.35C327.063 231.179 327.105 230.992 327.106 230.803L327.119 228.583C327.123 228.34 327.247 228.218 327.49 228.218L329.672 228.225C330.525 228.225 331.196 227.877 331.687 227.182C331.93 226.837 331.925 226.493 331.674 226.152C331.26 225.593 330.706 225.314 330.011 225.314H327.554C327.26 225.314 327.115 225.169 327.119 224.879Z" stroke="#F9A0A0" stroke-width="2"/>
<path d="M331.022 215.002C331.022 213.58 330.457 212.217 329.452 211.211C328.447 210.206 327.083 209.641 325.661 209.641C324.957 209.641 324.26 209.78 323.61 210.049C322.96 210.319 322.369 210.714 321.871 211.211C321.373 211.709 320.978 212.3 320.709 212.951C320.439 213.601 320.301 214.298 320.301 215.002C320.301 215.706 320.439 216.403 320.709 217.053C320.978 217.704 321.373 218.295 321.871 218.793C322.369 219.29 322.96 219.685 323.61 219.955C324.26 220.224 324.957 220.363 325.661 220.363C327.083 220.363 328.447 219.798 329.452 218.793C330.457 217.787 331.022 216.424 331.022 215.002Z" stroke="#F9A0A0" stroke-width="2"/>
<path d="M226.451 225.34C226.451 224.637 226.312 223.942 226.044 223.293C225.775 222.644 225.381 222.055 224.884 221.558C224.388 221.061 223.798 220.668 223.149 220.399C222.5 220.13 221.805 219.992 221.103 219.992C220.4 219.992 219.705 220.13 219.056 220.399C218.407 220.668 217.818 221.061 217.321 221.558C216.825 222.055 216.431 222.644 216.162 223.293C215.893 223.942 215.755 224.637 215.755 225.34C215.755 226.758 216.318 228.118 217.321 229.121C218.324 230.124 219.684 230.687 221.103 230.687C222.521 230.687 223.881 230.124 224.884 229.121C225.887 228.118 226.451 226.758 226.451 225.34Z" stroke="#97B9F9" stroke-width="2"/>
<path d="M297.975 395.371C297.527 396.019 297.649 396.414 298.34 396.555" stroke="#F9A0A0" stroke-width="2"/>
<path d="M298.34 396.554C296.856 398.563 295.457 400.527 294.143 402.446C293.947 402.732 293.384 403.327 292.455 404.231C291.252 405.399 291.209 406.8 292.327 408.434C292.446 408.609 292.467 408.798 292.391 409.003C291.986 410.031 292.09 410.894 292.704 411.594C293.216 412.178 293.758 412.756 294.329 413.327C294.854 413.852 295.807 414.217 296.434 414.217C299.589 414.225 302.743 414.223 305.895 414.21C307.993 414.204 308.383 412.739 309.797 411.651C311.326 410.487 311.307 408.53 309.95 407.173C309.792 407.016 309.687 406.81 309.65 406.585C309.338 404.576 309.01 403.333 308.665 402.855C307.18 400.791 305.724 398.678 304.295 396.516" stroke="#F7ED94" stroke-width="2"/>
<path d="M304.295 396.516C304.952 396.282 305.035 395.9 304.544 395.371" stroke="#F9A0A0" stroke-width="2"/>
<path d="M304.545 395.371C304.972 394.88 305.285 394.311 305.486 393.663C305.529 393.523 305.539 393.375 305.516 393.23C305.493 393.086 305.437 392.949 305.352 392.829C305.268 392.71 305.156 392.611 305.028 392.542C304.899 392.472 304.756 392.434 304.609 392.428C304.144 392.407 303.716 392.548 303.323 392.85C303.234 392.919 303.124 392.955 303.01 392.954C302.897 392.953 302.787 392.914 302.696 392.844C301.822 392.149 300.893 392.134 299.907 392.799C299.823 392.858 299.727 392.897 299.625 392.915C299.524 392.932 299.419 392.928 299.319 392.902C298.826 392.774 298.577 392.403 298.014 392.409C297.592 392.422 297.3 392.607 297.138 392.966C297.022 393.23 297.025 393.537 297.144 393.887C297.323 394.42 297.6 394.915 297.976 395.371" stroke="#F7ED94" stroke-width="2"/>
<path d="M304.544 395.371H297.975" stroke="#F18E34" stroke-width="2"/>
<path d="M304.295 396.516L298.34 396.554" stroke="#F18E34" stroke-width="2"/>
<path d="M339.511 395.013C337.685 393.068 335.63 392.71 333.344 393.938C331.591 394.878 330.689 396.989 330.945 398.94C331.534 403.354 335.525 407.391 339.3 409.297C339.555 409.425 339.811 409.427 340.067 409.304C344.178 407.261 346.912 404.22 348.268 400.181C349.266 397.22 347.75 393.842 344.449 393.324C342.654 393.038 341.176 393.595 340.016 394.994C339.854 395.19 339.686 395.196 339.511 395.013Z" stroke="#F9A0A0" stroke-width="2"/>
<path d="M300.335 410.314L300.495 411.197C300.509 411.284 300.542 411.366 300.59 411.44C300.639 411.514 300.702 411.577 300.777 411.626C301.118 411.847 301.468 411.843 301.826 411.613C301.975 411.519 302.065 411.385 302.094 411.21L302.216 410.468C302.259 410.191 302.417 410.018 302.689 409.95C305.344 409.246 305.741 406.137 302.984 405.018C302.071 404.651 301.139 404.256 300.188 403.834C300.067 403.781 299.959 403.701 299.873 403.6C299.787 403.5 299.725 403.38 299.692 403.252C299.659 403.123 299.655 402.988 299.681 402.858C299.707 402.727 299.763 402.604 299.843 402.497C299.945 402.361 300.075 402.25 300.233 402.164C301.043 401.712 301.839 401.742 302.619 402.254C303.084 402.561 303.579 402.753 304.103 402.83C304.162 402.837 304.221 402.83 304.276 402.809C304.331 402.788 304.379 402.753 304.417 402.708C304.532 402.576 304.596 402.401 304.609 402.184C304.63 401.74 304.436 401.431 304.026 401.256L302.485 400.604C302.335 400.54 302.242 400.431 302.203 400.277C302.178 400.162 302.169 400.043 302.178 399.919C302.195 399.706 302.137 399.516 302.005 399.35C301.775 399.047 301.44 398.962 301.001 399.094C300.766 399.162 300.604 399.299 300.514 399.503C300.416 399.712 300.369 399.945 300.374 400.201C300.378 400.41 300.284 400.559 300.092 400.648C299.414 400.955 298.71 401.263 298.339 401.947C296.83 404.73 300.681 405.772 302.549 406.534C302.699 406.595 302.833 406.691 302.939 406.814C303.045 406.938 303.121 407.084 303.159 407.242C303.198 407.4 303.199 407.564 303.162 407.723C303.124 407.881 303.05 408.028 302.945 408.152C301.986 409.284 300.105 408.798 298.966 407.979C298.706 407.796 298.491 407.7 298.32 407.691C298.005 407.679 297.783 407.815 297.655 408.101C297.603 408.217 297.586 408.346 297.605 408.472C297.625 408.598 297.68 408.715 297.764 408.811C298.284 409.412 299.011 409.788 299.945 409.937C300.042 409.951 300.132 409.996 300.202 410.063C300.272 410.131 300.319 410.219 300.335 410.314Z" stroke="#B6DC2D" stroke-width="2"/>
<path d="M372.506 22.3444C373.569 22.3444 374.431 21.4823 374.431 20.4189C374.431 19.3555 373.569 18.4934 372.506 18.4934C371.442 18.4934 370.58 19.3555 370.58 20.4189C370.58 21.4823 371.442 22.3444 372.506 22.3444Z" fill="white"/>
<path d="M165.302 24.9161C166.362 24.9161 167.221 24.0569 167.221 22.997C167.221 21.9371 166.362 21.0779 165.302 21.0779C164.242 21.0779 163.383 21.9371 163.383 22.997C163.383 24.0569 164.242 24.9161 165.302 24.9161Z" fill="white"/>
<path d="M272.962 121.286V169.084L271.798 169.04L271.804 121.312C272.167 121.154 272.553 121.146 272.962 121.286Z" fill="white"/>
<path d="M520.832 167.07C521.906 167.07 522.777 166.199 522.777 165.125C522.777 164.051 521.906 163.18 520.832 163.18C519.758 163.18 518.888 164.051 518.888 165.125C518.888 166.199 519.758 167.07 520.832 167.07Z" fill="white"/>
<path d="M377.527 164.447C377.979 164.69 378.433 165.174 378.889 165.899L336.721 208.055C336.448 208.324 336.179 208.321 335.915 208.049L335.352 207.466C335.109 207.215 335.111 206.965 335.358 206.718L377.527 164.447Z" fill="#F24040"/>
<path d="M166.171 164.62L181.588 180.151L180.04 181.565L164.623 166.174C165.203 165.342 165.719 164.824 166.171 164.62Z" fill="#2F72F3"/>
<path d="M20.6144 173.255C21.6743 173.255 22.5335 172.396 22.5335 171.336C22.5335 170.276 21.6743 169.417 20.6144 169.417C19.5545 169.417 18.6953 170.276 18.6953 171.336C18.6953 172.396 19.5545 173.255 20.6144 173.255Z" fill="white"/>
<path d="M272.943 196.598V245.298L271.798 245.317L271.804 196.56C272.41 196.483 272.789 196.496 272.943 196.598Z" fill="white"/>
<path d="M200.818 199.406L213.88 212.52C213.924 212.564 213.959 212.616 213.981 212.674C214.004 212.731 214.015 212.793 214.012 212.855C214.01 212.917 213.995 212.978 213.967 213.034C213.94 213.089 213.902 213.139 213.855 213.179L213.023 213.876C212.81 214.06 212.603 214.053 212.403 213.857L199.385 200.916C199.726 200.225 200.204 199.722 200.818 199.406Z" fill="#2F72F3"/>
<path d="M291.136 253.62L289.786 252.29L312.438 229.504C312.487 229.455 312.546 229.416 312.61 229.389C312.675 229.363 312.744 229.35 312.813 229.35C312.883 229.351 312.952 229.365 313.016 229.393C313.08 229.42 313.138 229.46 313.186 229.51L313.89 230.233C314.116 230.463 314.116 230.692 313.89 230.918L291.136 253.62Z" fill="#F24040"/>
<path d="M253.714 252.591L252.441 253.851L232.694 234.167C232.476 233.95 232.472 233.728 232.681 233.502L233.449 232.683C233.64 232.478 233.835 232.476 234.031 232.677L253.714 252.591Z" fill="#2F72F3"/>
<path d="M169.172 271.206C169.295 271.496 169.291 271.848 169.159 272.261L121.77 272.242C121.629 272.208 121.529 272.159 121.469 272.095C121.414 272.04 121.403 271.944 121.437 271.807C121.484 271.598 121.504 271.413 121.495 271.251L169.172 271.206Z" fill="white"/>
<path d="M245.487 271.219L245.449 272.261H196.634L196.755 271.212L245.487 271.219Z" fill="white"/>
<path d="M252.442 289.559L253.804 290.979L165.98 378.796C165.605 378.702 165.157 378.253 164.637 377.447L252.442 289.559Z" fill="#F24040"/>
<path d="M291.168 289.866L347.538 346.178L346.009 347.445L289.831 291.215L291.168 289.866Z" fill="#2F72F3"/>
<path d="M523.423 374.235C524.473 374.235 525.323 373.385 525.323 372.335C525.323 371.286 524.473 370.436 523.423 370.436C522.374 370.436 521.523 371.286 521.523 372.335C521.523 373.385 522.374 374.235 523.423 374.235Z" fill="white"/>
<path d="M23.1928 380.517C24.2739 380.517 25.1503 379.641 25.1503 378.56C25.1503 377.479 24.2739 376.602 23.1928 376.602C22.1117 376.602 21.2354 377.479 21.2354 378.56C21.2354 379.641 22.1117 380.517 23.1928 380.517Z" fill="white"/>
<path d="M378.724 522.581C379.773 522.581 380.624 521.73 380.624 520.681C380.624 519.632 379.773 518.781 378.724 518.781C377.675 518.781 376.824 519.632 376.824 520.681C376.824 521.73 377.675 522.581 378.724 522.581Z" fill="white"/>
<path d="M171.538 525.165C172.591 525.165 173.444 524.312 173.444 523.259C173.444 522.206 172.591 521.353 171.538 521.353C170.485 521.353 169.632 522.206 169.632 523.259C169.632 524.312 170.485 525.165 171.538 525.165Z" fill="white"/>
<path d="M50.7893 133.677C50.7746 133.65 50.7699 133.618 50.7761 133.588C50.7822 133.557 50.7989 133.529 50.8231 133.51C50.8473 133.49 50.8776 133.48 50.9087 133.48C50.9399 133.48 50.9701 133.491 50.994 133.511C51.3224 133.831 51.3821 134.24 51.1731 134.739C51.0324 135.072 50.9812 135.057 51.0196 134.694C51.0579 134.319 50.9812 133.98 50.7893 133.677Z" fill="#091A38"/>
<path d="M327.554 225.314H330.011C330.706 225.314 331.26 225.593 331.674 226.152C331.925 226.493 331.93 226.836 331.687 227.182C331.196 227.877 330.525 228.224 329.672 228.224L327.49 228.218C327.247 228.218 327.123 228.34 327.119 228.583L327.106 230.802C327.105 230.992 327.063 231.179 326.983 231.35C326.903 231.522 326.787 231.674 326.643 231.796C326.499 231.918 326.33 232.007 326.148 232.058C325.967 232.108 325.776 232.119 325.59 232.088L325.219 232.024C324.952 231.981 324.709 231.844 324.533 231.638C324.356 231.432 324.257 231.17 324.253 230.898L324.234 228.653C324.234 228.372 324.093 228.229 323.812 228.224L320.914 228.199C320.725 228.198 320.537 228.159 320.363 228.085C320.188 228.011 320.03 227.903 319.898 227.768C319.766 227.632 319.662 227.471 319.593 227.295C319.523 227.118 319.49 226.93 319.494 226.74C319.494 226.621 319.503 226.499 319.52 226.376C319.555 226.094 319.691 225.835 319.903 225.645C320.114 225.456 320.387 225.35 320.671 225.346L323.831 225.301C324.096 225.297 324.238 225.162 324.26 224.898C324.307 224.369 324.266 223.881 324.138 223.433C324.087 223.245 323.968 223.124 323.78 223.068C320.709 222.211 318.722 220.38 317.818 217.573C314.907 208.528 326.895 202.681 332.371 210.268C335.877 215.123 333.19 221.655 327.509 223.043C327.249 223.103 327.119 223.267 327.119 223.535V224.879C327.115 225.169 327.26 225.314 327.554 225.314ZM331.021 215.002C331.021 213.58 330.457 212.217 329.451 211.211C328.446 210.206 327.082 209.641 325.661 209.641C324.957 209.641 324.26 209.78 323.609 210.049C322.959 210.319 322.368 210.714 321.87 211.211C321.372 211.709 320.977 212.3 320.708 212.95C320.439 213.601 320.3 214.298 320.3 215.002C320.3 215.706 320.439 216.403 320.708 217.053C320.977 217.704 321.372 218.295 321.87 218.792C322.368 219.29 322.959 219.685 323.609 219.954C324.26 220.224 324.957 220.363 325.661 220.363C327.082 220.363 328.446 219.798 329.451 218.792C330.457 217.787 331.021 216.424 331.021 215.002Z" fill="#F24040"/>
<path d="M230.378 213.563L225.292 213.55C224.994 213.548 224.708 213.431 224.496 213.223C224.283 213.015 224.16 212.733 224.154 212.437L224.147 212.155C224.122 211.179 224.599 210.688 225.58 210.684L234.101 210.665C235.227 210.665 235.788 211.226 235.783 212.347L235.751 220.817C235.747 221.708 235.301 222.222 234.414 222.358C233.967 222.427 233.525 222.171 233.09 221.591C232.928 221.375 232.843 221.112 232.847 220.842L232.898 216.16C232.903 215.763 232.764 215.703 232.483 215.981L228.229 220.209C227.985 220.448 227.951 220.714 228.126 221.009C229.525 223.371 229.768 225.76 228.855 228.173C225.772 236.349 213.899 234.935 212.85 226.165C212.415 222.486 214.449 219.154 217.885 217.682C220.392 216.608 222.974 216.81 225.631 218.29C225.798 218.384 225.949 218.365 226.086 218.232L230.506 213.87C230.531 213.845 230.549 213.812 230.556 213.777C230.563 213.742 230.56 213.706 230.546 213.673C230.532 213.64 230.509 213.612 230.479 213.592C230.449 213.572 230.414 213.562 230.378 213.563ZM226.45 225.339C226.45 224.637 226.312 223.942 226.043 223.293C225.774 222.644 225.38 222.055 224.884 221.558C224.387 221.061 223.798 220.667 223.149 220.399C222.5 220.13 221.805 219.992 221.102 219.992C220.4 219.992 219.705 220.13 219.056 220.399C218.407 220.667 217.817 221.061 217.321 221.558C216.824 222.055 216.43 222.644 216.161 223.293C215.893 223.942 215.754 224.637 215.754 225.339C215.754 226.758 216.318 228.118 217.321 229.121C218.324 230.124 219.684 230.687 221.102 230.687C222.521 230.687 223.881 230.124 224.884 229.121C225.887 228.118 226.45 226.758 226.45 225.339Z" fill="#2F72F3"/>
<path d="M20.9219 331.862C20.8451 332.122 20.7513 332.13 20.6404 331.887C20.521 331.627 20.5061 331.333 20.5957 331.005C20.7065 330.621 20.811 330.623 20.9091 331.011C20.9901 331.318 20.9944 331.602 20.9219 331.862Z" fill="#091A38"/>
<path d="M32.6412 331.99C32.6113 332.058 32.5687 332.115 32.5132 332.162C32.5055 332.169 32.4961 332.174 32.4861 332.177C32.476 332.179 32.4654 332.179 32.4553 332.176C32.4453 332.174 32.436 332.169 32.4282 332.162C32.4205 332.155 32.4145 332.146 32.4109 332.137C32.3128 331.906 32.2744 331.659 32.2958 331.395C32.3128 331.186 32.4237 331.105 32.6284 331.152C32.7606 331.177 32.8203 331.258 32.8075 331.395C32.8033 331.454 32.7926 331.512 32.7755 331.567C32.703 331.81 32.6583 331.951 32.6412 331.99Z" fill="#091A38"/>
<path d="M304.544 395.371H297.975C297.599 394.915 297.322 394.42 297.143 393.887C297.024 393.537 297.021 393.23 297.137 392.966C297.299 392.607 297.591 392.422 298.013 392.409C298.576 392.403 298.825 392.774 299.318 392.902C299.418 392.928 299.523 392.932 299.625 392.915C299.726 392.897 299.822 392.858 299.906 392.799C300.892 392.134 301.821 392.149 302.696 392.844C302.786 392.914 302.896 392.953 303.009 392.954C303.123 392.955 303.233 392.919 303.322 392.85C303.715 392.548 304.143 392.407 304.608 392.428C304.755 392.434 304.898 392.472 305.027 392.542C305.155 392.611 305.267 392.71 305.351 392.829C305.436 392.949 305.492 393.086 305.515 393.23C305.538 393.375 305.528 393.523 305.485 393.663C305.284 394.311 304.971 394.88 304.544 395.371Z" fill="#EFDB28"/>
<path d="M340.015 394.994C341.175 393.595 342.653 393.038 344.448 393.324C347.749 393.842 349.265 397.22 348.267 400.181C346.911 404.22 344.177 407.261 340.066 409.304C339.81 409.427 339.555 409.425 339.299 409.297C335.524 407.391 331.533 403.354 330.944 398.94C330.688 396.989 331.59 394.878 333.343 393.938C335.629 392.71 337.684 393.068 339.51 395.013C339.685 395.196 339.853 395.19 340.015 394.994Z" fill="#F24040"/>
<path d="M297.975 395.371H304.545C305.035 395.9 304.952 396.281 304.295 396.516L298.34 396.554C297.649 396.414 297.527 396.019 297.975 395.371Z" fill="#F24040"/>
<path d="M304.295 396.516C305.724 398.678 307.18 400.791 308.665 402.855C309.01 403.333 309.338 404.576 309.65 406.585C309.687 406.81 309.792 407.015 309.95 407.173C311.307 408.529 311.326 410.487 309.797 411.651C308.383 412.739 307.993 414.203 305.895 414.21C302.743 414.223 299.589 414.225 296.434 414.216C295.807 414.216 294.854 413.852 294.329 413.327C293.758 412.756 293.216 412.178 292.704 411.594C292.09 410.894 291.986 410.031 292.391 409.003C292.467 408.798 292.446 408.608 292.327 408.433C291.209 406.8 291.252 405.399 292.455 404.231C293.384 403.327 293.947 402.732 294.143 402.446C295.457 400.527 296.856 398.563 298.34 396.554L304.295 396.516ZM300.336 410.314L300.496 411.197C300.51 411.283 300.542 411.366 300.59 411.44C300.639 411.514 300.702 411.577 300.777 411.626C301.118 411.847 301.468 411.843 301.826 411.613C301.975 411.519 302.065 411.385 302.095 411.21L302.216 410.468C302.259 410.19 302.417 410.018 302.69 409.95C305.345 409.246 305.741 406.137 302.984 405.017C302.071 404.651 301.14 404.256 300.189 403.834C300.067 403.781 299.959 403.701 299.874 403.6C299.788 403.499 299.726 403.38 299.692 403.252C299.659 403.123 299.656 402.988 299.682 402.857C299.708 402.727 299.763 402.604 299.843 402.497C299.946 402.361 300.076 402.25 300.233 402.164C301.044 401.712 301.839 401.742 302.619 402.254C303.084 402.561 303.579 402.753 304.104 402.83C304.162 402.837 304.222 402.83 304.277 402.809C304.331 402.788 304.38 402.753 304.417 402.708C304.532 402.576 304.596 402.401 304.609 402.184C304.63 401.74 304.436 401.431 304.027 401.256L302.485 400.604C302.336 400.54 302.242 400.431 302.204 400.277C302.178 400.162 302.17 400.043 302.178 399.919C302.195 399.706 302.138 399.516 302.005 399.35C301.775 399.047 301.44 398.962 301.001 399.094C300.766 399.162 300.604 399.299 300.515 399.503C300.417 399.712 300.37 399.945 300.374 400.2C300.378 400.409 300.285 400.559 300.093 400.648C299.415 400.955 298.711 401.262 298.34 401.947C296.83 404.73 300.681 405.772 302.549 406.534C302.699 406.595 302.833 406.691 302.939 406.814C303.045 406.937 303.121 407.084 303.16 407.242C303.198 407.4 303.199 407.564 303.162 407.723C303.125 407.881 303.051 408.028 302.946 408.152C301.986 409.284 300.105 408.798 298.967 407.979C298.707 407.796 298.491 407.7 298.321 407.691C298.005 407.679 297.783 407.815 297.655 408.101C297.604 408.217 297.586 408.346 297.606 408.472C297.625 408.598 297.68 408.715 297.764 408.811C298.284 409.412 299.012 409.787 299.945 409.937C300.043 409.951 300.132 409.995 300.202 410.063C300.272 410.131 300.319 410.219 300.336 410.314Z" fill="#EFDB28"/>
<path d="M299.945 409.937C299.011 409.788 298.284 409.412 297.764 408.811C297.68 408.715 297.625 408.598 297.605 408.472C297.586 408.346 297.603 408.217 297.655 408.101C297.783 407.815 298.005 407.679 298.32 407.691C298.491 407.7 298.706 407.796 298.966 407.979C300.105 408.798 301.986 409.284 302.945 408.152C303.05 408.028 303.124 407.881 303.162 407.723C303.199 407.564 303.198 407.4 303.159 407.242C303.121 407.084 303.045 406.938 302.939 406.814C302.833 406.691 302.699 406.595 302.549 406.534C300.681 405.772 296.83 404.73 298.339 401.947C298.71 401.263 299.414 400.955 300.092 400.648C300.284 400.559 300.378 400.41 300.374 400.201C300.369 399.945 300.416 399.712 300.514 399.503C300.604 399.299 300.766 399.162 301.001 399.094C301.44 398.962 301.775 399.047 302.005 399.35C302.137 399.516 302.195 399.706 302.178 399.919C302.169 400.043 302.178 400.162 302.203 400.277C302.242 400.431 302.335 400.54 302.485 400.604L304.026 401.256C304.436 401.431 304.63 401.74 304.609 402.184C304.596 402.401 304.532 402.576 304.417 402.708C304.379 402.753 304.331 402.788 304.276 402.809C304.221 402.83 304.162 402.837 304.103 402.83C303.579 402.753 303.084 402.561 302.619 402.254C301.839 401.742 301.043 401.712 300.233 402.164C300.075 402.25 299.945 402.361 299.843 402.497C299.763 402.604 299.707 402.727 299.681 402.858C299.655 402.988 299.659 403.123 299.692 403.252C299.725 403.38 299.787 403.5 299.873 403.6C299.959 403.701 300.067 403.781 300.188 403.834C301.139 404.256 302.071 404.651 302.984 405.018C305.741 406.137 305.344 409.246 302.689 409.95C302.417 410.018 302.259 410.191 302.216 410.468L302.094 411.21C302.065 411.385 301.975 411.519 301.826 411.613C301.468 411.843 301.118 411.847 300.777 411.626C300.702 411.577 300.639 411.514 300.59 411.44C300.542 411.366 300.509 411.284 300.495 411.197L300.335 410.314C300.319 410.219 300.272 410.131 300.202 410.063C300.132 409.996 300.042 409.951 299.945 409.937Z" fill="#7DDC32"/>
<path d="M541.508 303.088C540.774 309.579 539.757 316.187 538.456 322.913C538.41 323.147 538.471 323.35 538.642 323.52C539.979 324.844 539.41 326.284 537.9 327.045C537.708 327.143 537.589 327.297 537.542 327.506C536.109 334.299 534.446 340.948 532.552 347.451C532.523 347.551 532.524 347.656 532.553 347.756C532.582 347.856 532.64 347.945 532.718 348.014C533.851 349.019 533.78 350.81 532.219 351.347C532.006 351.42 531.797 351.496 531.593 351.577C531.392 351.663 531.26 351.808 531.196 352.012C529.447 357.684 527.443 363.467 525.183 369.361C525.106 369.557 525.132 369.741 525.26 369.911C525.494 370.214 525.716 370.515 525.925 370.813C527.07 372.438 526.085 374.351 524.441 375.118C523.987 375.329 523.52 375.208 523.065 375.336C522.856 375.391 522.711 375.519 522.63 375.72C520.417 381.097 518.022 386.392 515.447 391.603C515.353 391.791 515.359 391.974 515.466 392.153C516.169 393.36 516.031 394.354 515.05 395.134C514.879 395.271 514.685 395.358 514.468 395.397L513.815 395.512C513.568 395.554 513.387 395.687 513.272 395.908C510.073 402.131 506.64 408.216 502.972 414.165C502.862 414.344 502.83 414.536 502.877 414.741C503.017 415.336 503.331 415.925 503.126 416.513C502.776 417.532 502.019 418.038 500.855 418.029C500.642 418.029 500.478 418.119 500.363 418.298C496.929 423.671 493.309 428.906 489.5 434.002C489.368 434.177 489.317 434.371 489.347 434.584C489.564 436.171 489.328 437.713 487.236 437.489C487.001 437.463 486.814 437.542 486.673 437.725C474.165 453.923 460 468.51 444.178 481.487C443.96 481.666 443.879 481.894 443.935 482.172C444.182 483.353 443.66 484.17 442.368 484.622C442.142 484.703 441.916 484.698 441.69 484.609L441.127 484.379C441.023 484.338 440.911 484.325 440.801 484.34C440.691 484.356 440.587 484.4 440.5 484.468C435.199 488.664 429.763 492.652 424.194 496.43C424.015 496.554 423.929 496.723 423.938 496.936C423.985 498.207 423.424 498.917 422.256 499.066C421.699 499.136 421.386 498.925 420.887 498.868C420.673 498.839 420.456 498.889 420.279 499.008C414.863 502.599 409.069 506.081 402.898 509.455C402.795 509.511 402.708 509.593 402.646 509.692C402.585 509.79 402.55 509.903 402.546 510.018C402.5 511.489 401.787 512.235 400.41 512.257C400.177 512.261 399.949 512.191 399.757 512.058C399.544 511.913 399.318 511.807 399.079 511.738C398.907 511.689 398.719 511.71 398.555 511.796C393.177 514.662 387.688 517.334 382.089 519.811C381.884 519.905 381.763 520.061 381.724 520.278C381.673 520.581 381.626 520.875 381.584 521.161C381.315 523.087 379.53 523.989 377.777 523.47C377.221 523.304 376.856 522.882 376.344 522.562C376.165 522.447 375.978 522.432 375.782 522.517C370.442 524.739 365.037 526.778 359.565 528.633C359.309 528.718 359.137 528.842 359.047 529.004C358.97 529.136 358.921 529.281 358.9 529.439C358.708 530.821 356.821 531.396 355.829 530.488C355.736 530.403 355.637 530.322 355.535 530.245C355.365 530.108 355.173 530.074 354.959 530.142C348.264 532.317 341.443 534.222 334.495 535.855C334.394 535.88 334.301 535.932 334.225 536.005C334.149 536.078 334.092 536.169 334.061 536.271C333.698 537.507 332.905 538.009 331.681 537.774C331.067 537.652 330.971 537.397 330.523 537.038C330.357 536.902 330.167 536.857 329.954 536.904C323.655 538.264 317.32 539.42 310.948 540.371C310.739 540.401 310.59 540.514 310.5 540.71C309.963 541.892 309.031 542.243 307.705 541.766C307.509 541.698 307.36 541.572 307.257 541.388C307.172 541.235 307.05 541.118 306.893 541.036C306.773 540.973 306.62 540.953 306.432 540.979C286.141 543.585 265.779 543.89 245.347 541.894C245.113 541.872 244.931 541.962 244.804 542.162L244.612 542.482C244.505 542.657 244.356 542.783 244.164 542.86C242.833 543.405 241.857 543.024 241.234 541.715C241.14 541.523 240.987 541.414 240.773 541.388C234.227 540.651 227.532 539.621 220.687 538.299C220.611 538.285 220.533 538.292 220.46 538.317C220.387 538.343 220.322 538.387 220.271 538.446C219.525 539.303 218.678 539.465 217.732 538.932C217.143 538.593 217.117 538.113 216.708 537.672C216.571 537.522 216.387 537.419 216.184 537.377C209.501 536.008 202.897 534.367 196.372 532.452C196.159 532.392 195.975 532.439 195.822 532.592L195.47 532.951C195.308 533.113 195.114 533.215 194.888 533.258C193.523 533.514 192.685 532.976 192.374 531.646C192.31 531.364 192.139 531.181 191.862 531.096C185.909 529.275 180.092 527.268 174.411 525.076C174.211 524.999 174.03 525.027 173.868 525.159C172.256 526.49 170.49 526.797 169.057 524.871C168.596 524.244 168.724 523.707 168.526 523.01C168.466 522.788 168.33 522.635 168.117 522.549C162.743 520.34 157.455 517.952 152.252 515.385C152.06 515.291 151.864 515.28 151.664 515.353C151.348 515.468 151.035 515.57 150.723 515.66C149.444 516.024 148.446 515.046 148.344 513.798C148.322 513.542 148.199 513.357 147.973 513.242C141.699 510.026 135.571 506.574 129.588 502.885C129.409 502.774 129.212 502.736 128.999 502.77C128.743 502.808 128.494 502.861 128.251 502.93C127.144 503.243 125.98 502.514 125.935 501.33C125.927 501.122 125.884 500.921 125.807 500.729C125.735 500.537 125.611 500.386 125.436 500.275C120.054 496.838 114.809 493.204 109.7 489.375C109.529 489.247 109.337 489.198 109.124 489.227C107.685 489.419 106.354 489.125 106.354 487.315C106.35 487.012 106.228 486.767 105.989 486.579C89.7752 474.028 75.1751 459.863 62.1893 444.084C62.1213 444.002 62.0359 443.937 61.9396 443.892C61.8433 443.848 61.7384 443.826 61.6328 443.828L61.0314 443.835C60.8523 443.839 60.6796 443.8 60.5133 443.719C59.413 443.182 59.0249 442.261 59.349 440.956C59.4002 440.751 59.3618 440.566 59.2339 440.399C55.0162 435.115 51.0351 429.695 47.2907 424.138C47.1799 423.972 47.0285 423.872 46.8366 423.838L46.0561 423.69C45.6475 423.611 45.2849 423.378 45.0433 423.04C44.8016 422.702 44.6994 422.284 44.7575 421.874L44.8919 420.933C44.9217 420.712 44.8748 420.507 44.7511 420.319C40.9983 414.63 37.4927 408.796 34.2345 402.817C34.1322 402.63 33.9765 402.506 33.7676 402.446C33.4904 402.374 33.2131 402.303 32.9359 402.235C31.5222 401.896 31.3111 400.342 31.9316 399.203C32.034 399.015 32.0361 398.828 31.938 398.64C29.0636 393.164 26.3705 387.605 23.8586 381.963C23.7733 381.767 23.6284 381.639 23.4237 381.579C22.9951 381.451 22.6624 381.522 22.2082 381.317C19.7838 380.249 19.8669 378.227 21.1463 376.321C21.2615 376.146 21.2785 375.961 21.1975 375.764C18.9458 370.314 16.8668 364.802 14.9605 359.228C14.8837 358.998 14.7302 358.849 14.4999 358.78C13.3228 358.431 12.8153 357.64 12.9774 356.407C13.0158 356.121 13.1395 355.876 13.3484 355.671C13.5659 355.458 13.632 355.219 13.5467 354.955C11.359 348.17 9.44841 341.308 7.81505 334.37C7.76814 334.165 7.64659 334.022 7.45042 333.941C5.76162 333.231 5.75522 331.804 6.66359 330.423C6.77874 330.248 6.81499 330.058 6.77234 329.853C5.39059 323.559 4.23913 317.228 3.31797 310.861C3.28385 310.626 3.17084 310.439 2.97893 310.298C1.69954 309.36 1.55242 308.24 2.53755 306.939C2.66858 306.767 2.72606 306.549 2.69747 306.332C0.0405987 285.832 -0.268596 265.466 1.7699 245.234C1.80402 244.88 1.66969 244.603 1.3669 244.403C1.19205 244.287 1.06411 244.132 0.98308 243.936C0.509705 242.75 0.821028 241.844 1.91704 241.217C2.10042 241.11 2.2049 240.953 2.23049 240.744C3.0493 233.95 4.08348 227.195 5.33302 220.478C5.3714 220.273 5.33089 220.081 5.21148 219.902C4.3159 218.576 4.5334 217.516 5.86397 216.723C6.04735 216.616 6.16036 216.459 6.20301 216.25C7.60608 209.575 9.24797 202.965 11.1287 196.419C11.2268 196.078 11.2353 195.798 11.1543 195.581C11.0775 195.381 10.9624 195.204 10.8088 195.05C10.6596 194.901 10.5764 194.72 10.5593 194.506C10.457 193.316 10.9837 192.519 12.1394 192.114C12.3398 192.046 12.472 191.909 12.536 191.704C14.3613 185.802 16.3742 179.977 18.5747 174.228C18.6515 174.027 18.6472 173.827 18.5619 173.627C18.4425 173.345 18.2975 173.087 18.127 172.853C16.9563 171.196 18.1462 168.586 20.1548 168.451C20.3424 168.439 20.5216 168.394 20.6921 168.317C20.8895 168.231 21.0453 168.072 21.1271 167.876C23.3661 162.455 25.7799 157.12 28.3685 151.87C28.4623 151.674 28.473 151.472 28.4005 151.263C27.8034 149.591 28.3365 148.527 29.9997 148.071C30.2044 148.015 30.3537 147.894 30.4475 147.706C33.6972 141.373 37.1899 135.185 40.9258 129.142C41.0409 128.963 41.0708 128.769 41.0153 128.56C40.5846 126.905 41.1859 125.941 42.8193 125.668C42.9216 125.652 43.0196 125.614 43.1068 125.557C43.1939 125.5 43.2681 125.424 43.3246 125.336C46.9154 119.724 50.6108 114.382 54.4106 109.311C54.5428 109.132 54.5961 108.932 54.5705 108.71C54.3786 107.188 55.0524 106.301 56.5919 106.049C56.8009 106.015 56.9693 105.917 57.0973 105.755C69.7078 89.4893 83.9283 74.8509 99.7587 61.8395C99.9207 61.703 99.9997 61.5303 99.9954 61.3213C99.9698 60.1272 100.484 59.398 101.537 59.1336C102.234 58.9545 102.797 59.4023 103.443 58.8905C108.685 54.7154 114.086 50.7557 119.647 47.0113C119.822 46.8919 119.93 46.7277 119.973 46.5188C120.28 44.9835 121.216 44.3502 122.781 44.6189C122.995 44.6572 123.191 44.6189 123.37 44.5037C129.238 40.6911 135.14 37.1515 141.077 33.8847C141.264 33.7824 141.386 33.6289 141.441 33.4242C141.889 31.8505 142.778 30.859 144.569 31.6906C144.761 31.7801 144.951 31.7759 145.139 31.6778C150.649 28.7864 156.24 26.0762 161.912 23.5472C162.108 23.4619 162.229 23.3148 162.276 23.1058C162.455 22.3318 162.603 21.5194 163.191 20.9629C164.462 19.7602 165.859 19.7091 167.381 20.8093C167.543 20.9287 167.718 20.9522 167.906 20.8797L184.794 14.5403C184.862 14.5143 184.924 14.4741 184.976 14.4222C185.028 14.3704 185.068 14.3082 185.094 14.2396C185.625 12.8387 186.949 12.2502 188.21 13.1969C188.296 13.2622 188.398 13.3056 188.506 13.3234C188.614 13.3412 188.725 13.3329 188.83 13.2993C195.555 11.1329 202.447 9.21803 209.505 7.55482C209.727 7.50364 209.889 7.37784 209.991 7.1774C210.802 5.67624 211.893 5.41397 213.267 6.39057C213.363 6.46109 213.474 6.51012 213.592 6.53438C213.71 6.55865 213.832 6.55761 213.951 6.53131C220.169 5.16236 226.542 4.00663 233.072 3.06414C233.178 3.05002 233.281 3.01438 233.374 2.95938C233.466 2.90438 233.546 2.83119 233.609 2.74429C234.539 1.47343 235.624 1.32844 236.865 2.30931C237.031 2.44151 237.221 2.49482 237.434 2.46923C257.824 -0.132205 278.247 -0.420073 298.704 1.60563C298.943 1.62696 299.142 1.54806 299.299 1.36895L299.677 0.953151C299.822 0.791289 300.015 0.681261 300.227 0.639696C301.349 0.413669 302.135 0.76337 302.587 1.6888C302.698 1.91482 302.88 2.04277 303.131 2.07262C309.899 2.86584 316.62 3.89575 323.294 5.16235C323.499 5.20073 323.687 5.16022 323.857 5.04081C325.213 4.0898 326.316 4.31582 327.165 5.71889C327.271 5.90227 327.427 6.01528 327.632 6.05793C334.361 7.46526 341.023 9.13273 347.616 11.0604C347.825 11.1201 348.021 11.0966 348.204 10.99C348.665 10.7149 348.985 10.3759 349.548 10.3567C350.639 10.3098 351.337 10.8322 351.639 11.9239C351.703 12.15 351.846 12.2992 352.068 12.3717C358.017 14.2183 363.892 16.2654 369.692 18.5128C369.888 18.5896 370.071 18.5619 370.242 18.4297C372.481 16.6641 375.167 17.4637 375.462 20.4639C375.487 20.6857 375.602 20.8392 375.807 20.9245C381.257 23.2103 386.631 25.654 391.928 28.2554C392.119 28.3535 392.311 28.3535 392.503 28.2554C393.795 27.6029 395.324 27.9739 395.619 29.5284C395.644 29.6649 395.676 29.795 395.715 29.9186C395.783 30.1191 395.913 30.2683 396.105 30.3664C402.387 33.582 408.523 37.0491 414.515 40.7679C414.854 40.9726 415.117 40.979 415.456 40.8319C416.952 40.1922 418.091 41.35 418.181 42.7445C418.198 42.9578 418.294 43.122 418.469 43.2371C423.902 46.7128 429.192 50.3868 434.339 54.2591C434.51 54.387 434.7 54.4318 434.909 54.3934C436.623 54.1077 437.578 54.8284 437.775 56.5556C437.796 56.7646 437.89 56.9352 438.056 57.0674C454.219 69.5713 468.779 83.7235 481.735 99.524C481.871 99.6904 482.046 99.7927 482.259 99.8311C482.511 99.8695 482.764 99.8887 483.02 99.8887C484.498 99.9015 485.01 101.43 484.639 102.671C484.571 102.885 484.607 103.079 484.748 103.253C488.854 108.435 492.833 113.87 496.684 119.559C496.75 119.655 496.836 119.734 496.937 119.79C497.038 119.847 497.151 119.879 497.266 119.886C498.597 119.95 499.576 120.947 499.185 122.31C499.143 122.464 499.109 122.615 499.083 122.764C499.045 122.973 499.083 123.167 499.198 123.346C502.943 129.095 506.472 134.974 509.785 140.983C509.888 141.17 510.045 141.269 510.259 141.277C511.555 141.328 512.286 141.972 512.453 143.209C512.483 143.444 512.442 143.667 512.331 143.881L511.992 144.514C511.89 144.706 511.89 144.9 511.992 145.096C514.828 150.452 517.5 155.971 520.008 161.651C520.093 161.843 520.236 161.969 520.436 162.029C521.242 162.253 522.08 162.278 522.707 162.854C524.166 164.189 524.202 165.686 522.816 167.345C522.743 167.429 522.695 167.533 522.678 167.643C522.661 167.754 522.676 167.868 522.72 167.972C524.908 173.23 526.97 178.714 528.906 184.425C528.974 184.629 529.113 184.755 529.322 184.802C530.661 185.135 531.224 185.979 531.01 187.335C530.976 187.544 530.882 187.723 530.729 187.873C530.384 188.21 530.258 188.521 530.352 188.807C532.471 195.383 534.377 202.225 536.07 209.334C536.126 209.573 536.271 209.731 536.505 209.808L536.87 209.923C537.053 209.983 537.211 210.083 537.343 210.224C538.29 211.243 538.262 212.243 537.26 213.224C537.111 213.373 537.058 213.552 537.1 213.761C538.452 220.124 539.606 226.519 540.561 232.946C540.591 233.155 540.702 233.304 540.894 233.393C542.058 233.922 542.418 234.797 541.975 236.016C541.902 236.217 541.781 236.379 541.61 236.502C541.256 236.758 541.105 237.095 541.156 237.513C543.745 257.284 544.039 277.628 542.039 298.547C542.005 298.913 542.165 299.144 542.519 299.237C542.69 299.283 542.845 299.379 542.962 299.514C543.08 299.648 543.154 299.815 543.177 299.992C543.335 301.306 542.932 302.14 541.968 302.493C541.695 302.596 541.542 302.794 541.508 303.088ZM267.82 1.86152C257.768 2.05343 247.746 2.76989 237.754 4.0109C237.545 4.03649 237.389 4.14097 237.287 4.32435C236.487 5.76366 234.888 6.08991 233.743 4.82331C233.598 4.66552 233.421 4.60156 233.212 4.63141C226.875 5.5611 220.57 6.70403 214.296 8.06018C214.087 8.1071 213.932 8.22437 213.829 8.41201C213.032 9.86625 211.915 10.1285 210.477 9.19884C210.29 9.0837 210.089 9.04958 209.876 9.09649C203.061 10.6829 196.225 12.5764 189.367 14.777C189.265 14.811 189.171 14.8668 189.092 14.9407C189.012 15.0146 188.949 15.1049 188.907 15.2056C188.28 16.7025 187.224 17.0522 185.74 16.2547C185.54 16.1523 185.333 16.1353 185.12 16.2035C179.563 18.0629 174.081 20.1249 168.673 22.3894C168.477 22.4704 168.364 22.6154 168.334 22.8244C167.912 25.735 165.692 26.9184 163.101 25.0633C162.939 24.9439 162.767 24.9247 162.583 25.0058C156.907 27.5048 151.32 30.2108 145.823 33.1235C145.614 33.2344 145.476 33.4028 145.407 33.6289C144.968 35.0831 144.026 35.5842 142.58 35.1322C142.367 35.0639 142.16 35.0852 141.959 35.1961C135.976 38.4842 130.117 42.0004 124.381 45.7447C124.176 45.8769 124.059 46.0667 124.029 46.3141C123.803 48.0839 122.822 48.7385 121.086 48.2779C120.839 48.2097 120.611 48.2481 120.402 48.3931C114.866 52.1545 109.471 56.1163 104.217 60.2786C104.051 60.4108 103.964 60.5814 103.955 60.7904C103.891 62.4622 102.996 63.1552 101.268 62.8694C101.194 62.8575 101.118 62.8616 101.045 62.8815C100.972 62.9013 100.904 62.9365 100.846 62.9846C94.7264 68.0168 88.8177 73.3114 83.1202 78.8682C83.0733 78.9151 83.0733 78.9642 83.1202 79.0154C83.1586 79.0623 83.2012 79.0665 83.2481 79.0282C91.6089 72.5608 102.234 71.3838 111.638 76.0408C122.82 81.5678 128.34 94.1506 125.359 106.215C125.308 106.429 125.391 106.535 125.609 106.535L203.127 106.529C203.392 106.529 203.618 106.433 203.805 106.241L258.679 51.2781C259.271 51.4572 259.883 51.7877 260.515 52.2696L206.562 106.164C206.307 106.416 206.358 106.542 206.716 106.542L258.148 106.529C258.263 107.096 258.267 107.751 258.16 108.493H204.611C204.394 108.493 204.208 108.569 204.055 108.723L166.466 146.331C166.313 146.484 166.298 146.651 166.422 146.83C170.597 152.732 170.513 158.662 166.172 164.62C165.72 164.824 165.204 165.342 164.624 166.174C158.743 170.358 152.875 170.385 147.019 166.257C146.84 166.129 146.674 166.142 146.521 166.296L108.881 203.891C108.753 204.022 108.682 204.199 108.682 204.383L108.67 258.015L106.731 257.983L106.725 206.808C106.725 206.266 106.535 206.187 106.156 206.571L52.4915 260.293C52.0352 259.875 51.7004 259.288 51.4872 258.534L106.341 203.756C106.589 203.509 106.712 203.213 106.712 202.867L106.725 125.502C106.725 125.263 106.608 125.169 106.373 125.221C99.7587 126.662 93.7605 126.054 88.3785 123.398C73.1345 115.868 68.4391 96.3895 79.3332 82.9303C79.3758 82.8791 79.3715 82.8301 79.3204 82.7832C79.2692 82.7363 79.218 82.7384 79.1668 82.7896C71.8913 90.2655 65.0487 98.121 58.639 106.356C58.1912 106.925 58.2296 107.309 58.3959 107.962C58.4513 108.171 58.4471 108.375 58.3831 108.576C58.0547 109.625 57.3169 110.12 56.1697 110.06C55.9565 110.047 55.7859 110.126 55.658 110.297C51.8113 115.444 48.1479 120.724 44.668 126.135C44.5528 126.315 44.523 126.509 44.5784 126.718C45.022 128.394 44.4036 129.379 42.7233 129.673C42.5143 129.707 42.3544 129.816 42.2435 129.999C38.5248 136.034 35.0491 142.205 31.8165 148.512C31.7141 148.708 31.7056 148.909 31.7909 149.113C32.405 150.64 31.8996 151.634 30.2748 152.094C30.1723 152.122 30.0767 152.172 29.994 152.241C29.9114 152.309 29.8436 152.394 29.795 152.491C27.1979 157.792 24.7755 163.146 22.5281 168.554C22.4894 168.645 22.4767 168.745 22.4914 168.843C22.5061 168.941 22.5475 169.033 22.6112 169.11C24.4344 171.356 23.4812 174.01 20.5834 174.349C20.3531 174.375 20.1953 174.497 20.11 174.714C17.8327 180.488 15.8006 186.352 14.0137 192.306C13.9497 192.506 13.9689 192.7 14.0713 192.888C14.8133 194.282 14.4977 195.323 13.1245 196.01C12.9369 196.103 12.8153 196.25 12.7599 196.451C10.8792 202.852 9.20746 209.526 7.74468 216.473C7.71535 216.614 7.72356 216.759 7.7685 216.895C7.81343 217.031 7.89349 217.152 8.00056 217.247C8.83856 217.977 8.83856 219.358 7.85343 220.037C7.61887 220.199 7.38431 220.361 7.14976 220.523C6.97491 220.646 6.86829 220.815 6.82991 221.028C5.56331 227.63 4.55899 234.259 3.81694 240.916C3.79136 241.125 3.84679 241.311 3.98326 241.473C5.01957 242.71 4.89589 243.827 3.61224 244.825C3.44165 244.957 3.34783 245.128 3.33077 245.337C2.57166 253.23 2.1452 261.143 2.05137 269.076L2.14733 275.127C2.19424 285.733 2.88938 296.037 4.23274 306.037C4.26259 306.251 4.35642 306.426 4.51421 306.562C5.01957 306.997 5.43537 307.15 5.68486 307.816C5.98338 308.588 5.78294 309.308 5.08354 309.978C4.89163 310.161 4.81487 310.385 4.85325 310.65C5.81706 317.281 6.97917 323.638 8.3396 329.719C8.38224 329.919 8.49525 330.067 8.67863 330.16C10.0604 330.856 10.312 331.915 9.43348 333.34C9.30128 333.553 9.26289 333.781 9.31833 334.024C10.9517 340.907 12.8559 347.72 15.0308 354.462C15.0948 354.663 15.2206 354.81 15.4082 354.904C16.8582 355.612 17.2186 356.716 16.4893 358.218C16.3998 358.405 16.3891 358.599 16.4574 358.8C18.4276 364.557 20.4896 370.016 22.6432 375.176C22.7413 375.41 22.9162 375.54 23.1678 375.566C25.6882 375.848 27.1659 378.4 25.4067 380.466C25.185 380.726 25.1444 381.014 25.2852 381.33C27.8226 387.002 30.5477 392.588 33.4605 398.09C33.5628 398.282 33.7185 398.408 33.9275 398.467C35.2495 398.86 35.7336 399.762 35.3796 401.173C35.3199 401.399 35.3476 401.612 35.4628 401.813C38.7764 407.843 42.3203 413.743 46.0945 419.513C46.2097 419.688 46.3717 419.786 46.5807 419.808C48.2268 419.991 48.8665 420.946 48.4998 422.673C48.4775 422.777 48.4763 422.883 48.496 422.988C48.5158 423.092 48.5562 423.192 48.6149 423.281C52.355 428.791 56.3595 434.235 60.6284 439.613C60.6969 439.699 60.7827 439.771 60.8806 439.824C60.9785 439.877 61.0864 439.909 61.1977 439.92C62.6179 440.069 63.2555 440.858 63.1105 442.286C63.0982 442.398 63.1083 442.51 63.1402 442.618C63.172 442.726 63.225 442.826 63.296 442.913C68.0041 448.666 72.9767 454.245 78.2137 459.648C78.2905 459.729 78.3693 459.733 78.4504 459.661H78.4568C78.5378 459.592 78.5485 459.516 78.4888 459.43C71.0235 448.824 71.7591 434.239 81.2075 425.123C88.1119 418.466 96.5069 416.161 106.392 418.208C106.61 418.251 106.719 418.161 106.719 417.94L106.712 340.568C106.712 340.426 106.685 340.286 106.631 340.156C106.577 340.025 106.498 339.906 106.399 339.807L51.4807 284.921C51.6385 284.149 51.9712 283.554 52.4787 283.136L106.22 336.896C106.544 337.221 106.706 337.152 106.706 336.692L106.731 285.49C107.243 285.354 107.889 285.341 108.67 285.452L108.676 338.937C108.676 339.067 108.702 339.196 108.751 339.315C108.8 339.435 108.873 339.543 108.964 339.634L146.572 377.242C146.598 377.271 146.635 377.288 146.674 377.292C146.713 377.295 146.751 377.284 146.783 377.261C152.715 373.009 158.666 373.071 164.637 377.447C165.157 378.253 165.605 378.703 165.98 378.797C170.313 384.78 170.407 390.678 166.262 396.491C166.138 396.665 166.153 396.83 166.306 396.983L204.029 434.706C204.191 434.868 204.387 434.949 204.618 434.949H257.067C257.267 434.949 257.384 434.849 257.418 434.648C258.766 426.721 263.464 422.307 271.511 421.407C271.737 421.381 271.85 421.255 271.85 421.029L271.812 298.169C272.195 298.097 272.571 298.095 272.937 298.163L272.899 421.029C272.899 421.243 272.999 421.392 273.2 421.477C273.782 421.72 274.703 421.707 275.164 421.835C281.599 423.622 285.331 427.893 286.358 434.648C286.388 434.849 286.505 434.949 286.71 434.949H339.191C339.296 434.949 339.401 434.928 339.499 434.888C339.596 434.847 339.685 434.788 339.76 434.712L377.566 396.913C377.69 396.789 377.701 396.659 377.598 396.523C374.233 392.036 373.632 387.232 375.794 382.11C376.178 381.202 376.888 380.319 377.381 379.391C377.748 378.701 378.242 378.129 378.865 377.677C384.737 373.397 391 372.764 396.924 377.255C397.039 377.34 397.145 377.334 397.243 377.236L434.851 339.622C435.031 339.442 435.132 339.198 435.133 338.943L435.152 286.546C435.152 286.286 435.02 286.139 434.755 286.104C431.314 285.691 428.505 284.484 426.33 282.484C423.558 279.938 421.993 276.626 421.635 272.549C421.614 272.336 421.496 272.229 421.283 272.229H337.745C337.532 272.229 337.417 272.336 337.4 272.549C336.871 278.614 334.517 283.347 330.337 286.751C323.218 292.553 313.385 292.879 305.939 287.25C301.705 284.047 299.165 279.545 298.321 273.746L298.289 269.671C299.21 264.131 301.568 259.8 305.364 256.678C318.068 246.239 336.619 254.926 337.393 271.046C337.395 271.109 337.421 271.17 337.467 271.214C337.512 271.258 337.573 271.283 337.636 271.283L421.322 271.289C421.387 271.29 421.45 271.266 421.499 271.224C421.547 271.181 421.577 271.122 421.584 271.059C422.556 263.152 426.972 258.551 434.832 257.254C435.041 257.22 435.145 257.096 435.145 256.883L435.133 204.454C435.133 204.219 435.047 204.019 434.877 203.852L397.301 166.283C397.143 166.125 396.973 166.11 396.789 166.238C390.725 170.486 384.759 170.373 378.89 165.899C378.434 165.174 377.98 164.69 377.528 164.447C374.027 159.794 373.387 154.92 375.609 149.823C376.044 148.825 376.799 147.847 377.4 146.849C377.519 146.653 377.498 146.474 377.336 146.311L339.792 108.755C339.719 108.682 339.632 108.624 339.537 108.584C339.441 108.545 339.339 108.525 339.236 108.525L285.648 108.493C285.533 107.904 285.529 107.252 285.635 106.535L337.253 106.548C337.282 106.547 337.31 106.538 337.334 106.521C337.358 106.504 337.377 106.481 337.388 106.455C337.4 106.428 337.403 106.398 337.398 106.369C337.394 106.341 337.381 106.314 337.361 106.292L283.288 52.2505L285.111 51.2589L340.099 106.279C340.253 106.437 340.438 106.516 340.656 106.516L418.149 106.542C418.194 106.542 418.239 106.532 418.28 106.512C418.321 106.493 418.357 106.464 418.385 106.428C418.413 106.392 418.432 106.35 418.441 106.305C418.45 106.261 418.448 106.214 418.437 106.17C415.43 94.0866 421.085 81.4718 432.273 75.9896C441.606 71.4158 452.117 72.5992 460.452 78.9002C460.499 78.9343 460.541 78.9279 460.58 78.881H460.586C460.625 78.8341 460.622 78.7915 460.58 78.7531C453.027 71.4094 445.201 64.603 437.103 58.334C436.902 58.1804 436.679 58.125 436.431 58.1676C434.806 58.4491 433.917 57.7689 433.764 56.127C433.738 55.8711 433.623 55.6664 433.418 55.5129C428.339 51.743 423.074 48.0988 417.624 44.5805C417.445 44.4611 417.251 44.4248 417.042 44.4717C415.451 44.8001 414.487 44.1945 414.151 42.655C414.108 42.446 413.995 42.2861 413.812 42.1752C407.76 38.4522 401.576 34.9616 395.26 31.7034C395.073 31.6053 394.879 31.5904 394.678 31.6586C393.177 32.1789 392.2 31.6885 391.748 30.1873C391.689 29.9869 391.563 29.8376 391.371 29.7395C386.087 27.1338 380.72 24.7008 375.27 22.4406C375.074 22.3595 374.888 22.3787 374.713 22.4981C373.894 23.0611 373.114 23.5536 372.084 23.3617C370.579 23.0803 369.715 22.1015 369.493 20.4255C369.463 20.1952 369.338 20.0374 369.116 19.9521C363.529 17.8284 357.676 15.7984 351.556 13.8622C351.305 13.7843 351.035 13.8049 350.801 13.9198C349.475 14.568 348.503 14.2652 347.884 13.0114C347.836 12.9129 347.767 12.8256 347.682 12.7551C347.598 12.6845 347.499 12.6324 347.392 12.602C340.713 10.6915 334.024 9.02612 327.324 7.606C327.221 7.58229 327.112 7.5857 327.009 7.61591C326.907 7.64612 326.812 7.70215 326.736 7.77872C325.994 8.50371 325.171 8.61458 324.267 8.11135C323.755 7.82988 323.678 7.43968 323.352 7.01108C323.22 6.8405 323.049 6.73601 322.84 6.69763C316.268 5.44382 309.654 4.42457 302.997 3.63988C302.788 3.61429 302.6 3.66972 302.434 3.80619C301.18 4.83824 300.052 4.7167 299.05 3.44157C298.918 3.27525 298.745 3.18143 298.532 3.1601C291.337 2.41379 283.932 2.01718 276.315 1.97027C273.773 1.57792 270.942 1.54167 267.82 1.86152ZM374.432 20.4191C374.432 19.9085 374.229 19.4187 373.868 19.0576C373.507 18.6965 373.017 18.4936 372.506 18.4936C371.996 18.4936 371.506 18.6965 371.145 19.0576C370.784 19.4187 370.581 19.9085 370.581 20.4191C370.581 20.9298 370.784 21.4195 371.145 21.7806C371.506 22.1417 371.996 22.3446 372.506 22.3446C373.017 22.3446 373.507 22.1417 373.868 21.7806C374.229 21.4195 374.432 20.9298 374.432 20.4191ZM167.221 22.9971C167.221 22.4881 167.019 22 166.659 21.6401C166.299 21.2802 165.811 21.078 165.302 21.078C164.793 21.078 164.305 21.2802 163.945 21.6401C163.585 22 163.383 22.4881 163.383 22.9971C163.383 23.5061 163.585 23.9942 163.945 24.3541C164.305 24.714 164.793 24.9162 165.302 24.9162C165.811 24.9162 166.299 24.714 166.659 24.3541C167.019 23.9942 167.221 23.5061 167.221 22.9971ZM124.617 99.6136C124.617 93.0309 122.002 86.7177 117.348 82.063C112.693 77.4083 106.38 74.7934 99.7971 74.7934C93.2143 74.7934 86.9012 77.4083 82.2465 82.063C77.5918 86.7177 74.9768 93.0309 74.9768 99.6136C74.9768 102.873 75.6188 106.101 76.8662 109.112C78.1135 112.123 79.9417 114.859 82.2465 117.164C84.5513 119.469 87.2874 121.297 90.2988 122.545C93.3101 123.792 96.5376 124.434 99.7971 124.434C103.057 124.434 106.284 123.792 109.295 122.545C112.307 121.297 115.043 119.469 117.348 117.164C119.652 114.859 121.481 112.123 122.728 109.112C123.975 106.101 124.617 102.873 124.617 99.6136ZM468.825 99.6072C468.825 93.0245 466.21 86.7113 461.556 82.0566C456.901 77.4019 450.588 74.787 444.005 74.787C437.422 74.787 431.109 77.4019 426.455 82.0566C421.8 86.7113 419.185 93.0245 419.185 99.6072C419.185 106.19 421.8 112.503 426.455 117.158C431.109 121.812 437.422 124.427 444.005 124.427C450.588 124.427 456.901 121.812 461.556 117.158C466.21 112.503 468.825 106.19 468.825 99.6072ZM492.347 258.54C492.147 259.188 491.799 259.764 491.304 260.267L437.544 206.488C437.254 206.198 437.109 206.26 437.109 206.673L437.09 257.03C437.09 257.167 437.16 257.243 437.301 257.261C443.587 258.05 447.854 261.519 450.102 267.668C449.769 270.308 449.762 273.038 450.082 275.857C447.878 281.887 443.658 285.32 437.423 286.156C437.205 286.185 437.097 286.313 437.097 286.539L437.103 337.037C437.102 337.069 437.111 337.101 437.128 337.128C437.146 337.155 437.171 337.176 437.201 337.189C437.231 337.201 437.264 337.204 437.295 337.198C437.327 337.191 437.356 337.175 437.378 337.152L491.368 283.085L492.373 284.921L437.634 339.596C437.282 339.948 437.084 340.424 437.084 340.92L437.103 417.952C437.103 418.195 437.222 418.291 437.461 418.24C444.677 416.632 451.249 417.545 457.177 420.978C471.333 429.166 474.608 447.59 464.533 460.473C464.495 460.52 464.499 460.565 464.546 460.607C464.593 460.65 464.638 460.65 464.68 460.607C472.05 453.059 478.963 445.112 485.419 436.766C485.577 436.561 485.643 436.331 485.618 436.075C485.464 434.651 486.078 433.83 487.46 433.612C487.729 433.57 487.946 433.437 488.112 433.216C491.844 428.222 495.524 422.912 499.154 417.287C499.302 417.056 499.363 416.777 499.326 416.5C499.16 415.289 499.672 414.485 500.861 414.089C501.114 414.002 501.326 413.832 501.463 413.609C505.267 407.4 508.779 401.182 511.999 394.955C512.101 394.759 512.127 394.552 512.075 394.335C511.743 392.927 512.24 392.002 513.566 391.559C513.652 391.53 513.732 391.485 513.799 391.424C513.866 391.363 513.92 391.289 513.956 391.207L521.21 375.253C521.308 375.039 521.315 374.824 521.229 374.607C520.954 373.864 520.513 373.276 520.487 372.508C520.423 370.941 521.409 369.674 522.963 369.387C523.334 369.318 523.59 369.105 523.731 368.747C525.799 363.408 527.81 357.593 529.763 351.302C529.827 351.098 529.829 350.893 529.769 350.688C529.603 350.108 529.575 349.526 529.686 348.942C529.725 348.729 529.829 348.556 530 348.424C530.554 347.98 530.912 347.494 531.074 346.965C532.797 341.238 534.446 334.632 536.019 327.147C536.062 326.938 536.028 326.744 535.917 326.565C535.115 325.273 535.33 324.181 536.563 323.29C536.734 323.166 536.84 323 536.883 322.791C538.184 316.134 539.213 309.43 539.973 302.679C539.994 302.466 539.945 302.272 539.825 302.097C539.045 300.941 539.147 299.928 540.132 299.058C540.305 298.906 540.415 298.691 540.439 298.457C542.431 278.038 542.15 257.736 539.595 237.551C539.565 237.313 539.454 237.123 539.262 236.982C538.034 236.074 537.889 234.995 538.828 233.745C538.973 233.553 539.028 233.338 538.994 233.099C538.085 226.851 536.934 220.501 535.539 214.049C535.513 213.926 535.462 213.809 535.39 213.705C535.317 213.602 535.224 213.514 535.117 213.448C534.478 213.055 534.13 212.518 534.075 211.836C534.057 211.639 534.092 211.45 534.177 211.266C534.51 210.563 534.65 210.172 534.458 209.354C532.829 202.526 530.957 195.807 528.842 189.197C528.761 188.954 528.609 188.77 528.388 188.647C527.223 188.011 526.912 187.058 527.454 185.787C527.548 185.569 527.557 185.323 527.479 185.096C525.616 179.561 523.535 174.025 521.236 168.49C521.194 168.393 521.13 168.309 521.049 168.243C520.967 168.177 520.871 168.132 520.769 168.112C518.551 167.711 517.63 166.436 518.005 164.287C518.048 164.048 518.148 163.835 518.306 163.647C518.46 163.472 518.579 163.276 518.664 163.059C518.745 162.846 518.739 162.634 518.645 162.425C516.112 156.736 513.408 151.156 510.534 145.685C510.418 145.466 510.227 145.297 509.996 145.211C508.811 144.763 508.346 143.91 508.602 142.652C508.653 142.405 508.619 142.171 508.499 141.949C505.199 135.901 501.657 129.986 497.874 124.204C497.721 123.969 497.507 123.83 497.234 123.788C495.733 123.532 495.153 122.653 495.494 121.152C495.554 120.888 495.507 120.643 495.354 120.417C491.584 114.851 487.609 109.429 483.43 104.149C483.277 103.96 483.06 103.834 482.822 103.797C481.41 103.584 480.745 102.75 480.826 101.296C480.839 101.036 480.764 100.806 480.602 100.605C475.485 94.4086 470.12 88.436 464.508 82.6872C464.486 82.6659 464.458 82.6616 464.424 82.6744C464.412 82.6787 464.399 82.6808 464.386 82.6808C464.335 82.6893 464.322 82.7086 464.348 82.7384C475.069 96.0185 471.071 115.644 455.616 123.314C450.067 126.069 444.007 126.707 437.436 125.227C437.394 125.217 437.351 125.217 437.31 125.227C437.268 125.236 437.229 125.255 437.196 125.281C437.163 125.307 437.136 125.341 437.118 125.379C437.099 125.418 437.09 125.46 437.09 125.502L437.097 202.976C437.097 203.206 437.178 203.4 437.34 203.558L492.347 258.54ZM137.181 113.214C151.171 116.969 156.359 133.364 147.359 144.565C147.154 144.817 147.186 144.853 147.454 144.674C153.233 140.861 158.911 140.959 164.49 144.968C164.694 145.113 164.884 145.098 165.059 144.923L201.163 108.832C201.385 108.61 201.34 108.499 201.029 108.499L125.014 108.493C124.796 108.493 124.649 108.595 124.573 108.8C123.421 111.755 121.882 114.378 119.954 116.668C119.66 117.018 119.698 117.058 120.069 116.789C125.596 112.828 131.3 111.636 137.181 113.214ZM392.049 130.575C393.501 114.986 410.715 107.38 423.33 116.521C423.381 116.555 423.437 116.563 423.497 116.546C423.548 116.534 423.588 116.508 423.618 116.47C423.633 116.451 423.641 116.429 423.641 116.406C423.641 116.382 423.633 116.36 423.618 116.342C421.797 114.111 420.358 111.616 419.3 108.857C419.206 108.614 419.029 108.493 418.769 108.493L342.94 108.499C342.53 108.499 342.47 108.644 342.76 108.934L378.737 144.911C378.916 145.09 379.108 145.107 379.313 144.962C384.912 140.97 390.599 140.876 396.373 144.68C396.561 144.804 396.587 144.778 396.45 144.603C393.055 140.215 391.588 135.539 392.049 130.575ZM150.25 132.104C150.25 127.336 148.356 122.764 144.985 119.393C141.614 116.022 137.042 114.128 132.274 114.128C127.507 114.128 122.935 116.022 119.564 119.393C116.193 122.764 114.299 127.336 114.299 132.104C114.299 136.871 116.193 141.443 119.564 144.814C122.935 148.185 127.507 150.079 132.274 150.079C137.042 150.079 141.614 148.185 144.985 144.814C148.356 141.443 150.25 136.871 150.25 132.104ZM429.503 132.097C429.503 127.328 427.609 122.755 424.237 119.382C420.864 116.01 416.29 114.116 411.521 114.116C406.752 114.116 402.179 116.01 398.806 119.382C395.434 122.755 393.54 127.328 393.54 132.097C393.54 136.866 395.434 141.44 398.806 144.813C402.179 148.185 406.752 150.079 411.521 150.079C416.29 150.079 420.864 148.185 424.237 144.813C427.609 141.44 429.503 136.866 429.503 132.097ZM116.583 119.962C114.344 121.894 111.74 123.148 108.951 124.415C108.764 124.5 108.67 124.645 108.67 124.85L108.682 200.82C108.682 201.166 108.804 201.217 109.047 200.974L145.158 164.812C145.307 164.662 145.32 164.502 145.196 164.332C141.09 158.651 141.038 152.875 145.043 147.002C145.048 146.997 145.051 146.99 145.051 146.983C145.051 146.976 145.048 146.969 145.043 146.964C145.038 146.959 145.031 146.956 145.024 146.956C145.016 146.956 145.01 146.959 145.004 146.964C139.883 151.028 134.358 152.461 128.43 151.263C114.235 148.397 108.036 131.63 116.807 120.173C117.421 119.372 117.346 119.301 116.583 119.962ZM427.13 120.346C436.009 132.43 429.011 149.203 414.311 151.455C409.811 152.146 405.425 151.226 401.152 148.698C400.602 148.371 399.937 147.751 399.271 147.399C399.028 147.271 398.981 147.324 399.13 147.559C402.777 153.205 402.581 158.85 398.542 164.492C398.517 164.53 398.506 164.575 398.51 164.619C398.515 164.664 398.535 164.705 398.568 164.735L434.896 201.082C434.916 201.103 434.941 201.118 434.969 201.124C434.997 201.13 435.027 201.127 435.053 201.116C435.079 201.104 435.102 201.085 435.117 201.061C435.133 201.037 435.14 201.009 435.139 200.98L435.145 124.856C435.145 124.604 435.026 124.434 434.787 124.344C432.002 123.338 429.542 121.92 427.405 120.09C426.561 119.365 426.469 119.451 427.13 120.346ZM167.893 155.606C167.893 152.395 166.617 149.315 164.346 147.044C162.075 144.773 158.995 143.497 155.783 143.497C152.572 143.497 149.492 144.773 147.221 147.044C144.95 149.315 143.674 152.395 143.674 155.606C143.674 158.818 144.95 161.898 147.221 164.169C149.492 166.44 152.572 167.716 155.783 167.716C158.995 167.716 162.075 166.44 164.346 164.169C166.617 161.898 167.893 158.818 167.893 155.606ZM400.135 155.6C400.135 154.009 399.821 152.433 399.213 150.963C398.604 149.493 397.711 148.158 396.586 147.033C395.461 145.908 394.125 145.015 392.655 144.406C391.186 143.797 389.61 143.484 388.019 143.484C384.806 143.484 381.724 144.761 379.452 147.033C377.18 149.305 375.903 152.387 375.903 155.6C375.903 158.813 377.18 161.895 379.452 164.167C381.724 166.439 384.806 167.716 388.019 167.716C389.61 167.716 391.186 167.402 392.655 166.793C394.125 166.185 395.461 165.292 396.586 164.167C397.711 163.042 398.604 161.706 399.213 160.236C399.821 158.766 400.135 157.191 400.135 155.6ZM522.777 165.125C522.777 164.609 522.573 164.115 522.208 163.75C521.843 163.385 521.349 163.18 520.833 163.18C520.317 163.18 519.822 163.385 519.458 163.75C519.093 164.115 518.888 164.609 518.888 165.125C518.888 165.641 519.093 166.135 519.458 166.5C519.822 166.865 520.317 167.07 520.833 167.07C521.349 167.07 521.843 166.865 522.208 166.5C522.573 166.135 522.777 165.641 522.777 165.125ZM22.5345 171.336C22.5345 170.827 22.3323 170.339 21.9724 169.979C21.6125 169.62 21.1244 169.417 20.6154 169.417C20.1064 169.417 19.6183 169.62 19.2584 169.979C18.8985 170.339 18.6963 170.827 18.6963 171.336C18.6963 171.845 18.8985 172.334 19.2584 172.693C19.6183 173.053 20.1064 173.256 20.6154 173.256C21.1244 173.256 21.6125 173.053 21.9724 172.693C22.3323 172.334 22.5345 171.845 22.5345 171.336ZM335.82 271.73C335.82 269.37 335.355 267.032 334.451 264.852C333.548 262.671 332.224 260.689 330.555 259.02C328.886 257.351 326.904 256.027 324.723 255.123C322.542 254.22 320.205 253.755 317.844 253.755C313.077 253.755 308.505 255.649 305.134 259.02C301.763 262.391 299.869 266.963 299.869 271.73C299.869 274.091 300.334 276.429 301.237 278.609C302.14 280.79 303.464 282.772 305.134 284.441C306.803 286.11 308.784 287.434 310.965 288.338C313.146 289.241 315.484 289.706 317.844 289.706C320.205 289.706 322.542 289.241 324.723 288.338C326.904 287.434 328.886 286.11 330.555 284.441C332.224 282.772 333.548 280.79 334.451 278.609C335.355 276.429 335.82 274.091 335.82 271.73ZM449.001 271.724C449.001 268.305 447.643 265.027 445.226 262.61C442.809 260.192 439.53 258.834 436.111 258.834C432.693 258.834 429.414 260.192 426.997 262.61C424.58 265.027 423.221 268.305 423.221 271.724C423.221 275.143 424.58 278.421 426.997 280.839C429.414 283.256 432.693 284.614 436.111 284.614C439.53 284.614 442.809 283.256 445.226 280.839C447.643 278.421 449.001 275.143 449.001 271.724ZM422.46 395.166C431.742 401.269 433.904 414.466 426.964 423.339C426.529 423.897 426.584 423.953 427.13 423.505C429.326 421.705 431.892 420.221 434.826 419.053C435.035 418.972 435.139 418.82 435.139 418.598L435.145 342.513C435.145 342.27 435.058 342.234 434.883 342.404L398.862 378.432C398.674 378.62 398.642 378.831 398.766 379.065C399.118 379.711 399.706 380.306 400.071 380.984C402.736 385.974 402.519 390.9 399.418 395.761C399.252 396.021 399.295 396.058 399.546 395.87C406.436 390.714 415.328 390.471 422.46 395.166ZM117.766 398.231C124.272 390.996 136.055 389.511 143.93 395.672C144.399 396.039 144.482 395.966 144.179 395.454C140.806 389.705 141.143 384.176 145.19 378.867C145.22 378.83 145.235 378.782 145.231 378.734C145.228 378.685 145.206 378.639 145.171 378.605L109.047 342.475C108.8 342.227 108.676 342.276 108.676 342.622V418.598C108.676 418.807 108.772 418.95 108.964 419.027C111.762 420.157 114.327 421.648 116.659 423.499C117.026 423.793 117.073 423.746 116.8 423.358C111.222 415.458 111.299 405.427 117.766 398.231ZM525.324 372.336C525.324 371.832 525.123 371.348 524.767 370.992C524.411 370.636 523.927 370.436 523.424 370.436C522.92 370.436 522.436 370.636 522.08 370.992C521.724 371.348 521.524 371.832 521.524 372.336C521.524 372.839 521.724 373.323 522.08 373.679C522.436 374.035 522.92 374.235 523.424 374.235C523.927 374.235 524.411 374.035 524.767 373.679C525.123 373.323 525.324 372.839 525.324 372.336ZM167.688 387.855C167.688 384.643 166.412 381.563 164.141 379.292C161.87 377.021 158.79 375.745 155.579 375.745C152.367 375.745 149.287 377.021 147.016 379.292C144.745 381.563 143.469 384.643 143.469 387.855C143.469 391.066 144.745 394.146 147.016 396.417C149.287 398.688 152.367 399.964 155.579 399.964C158.79 399.964 161.87 398.688 164.141 396.417C166.412 394.146 167.688 391.066 167.688 387.855ZM400.333 387.855C400.333 384.643 399.057 381.563 396.786 379.292C394.515 377.021 391.435 375.745 388.224 375.745C385.012 375.745 381.932 377.021 379.661 379.292C377.39 381.563 376.114 384.643 376.114 387.855C376.114 391.066 377.39 394.146 379.661 396.417C381.932 398.688 385.012 399.964 388.224 399.964C391.435 399.964 394.515 398.688 396.786 396.417C399.057 394.146 400.333 391.066 400.333 387.855ZM25.1508 378.56C25.1508 378.041 24.9446 377.543 24.5775 377.176C24.2104 376.809 23.7125 376.602 23.1934 376.602C22.6742 376.602 22.1763 376.809 21.8092 377.176C21.4421 377.543 21.2359 378.041 21.2359 378.56C21.2359 379.079 21.4421 379.577 21.8092 379.944C22.1763 380.311 22.6742 380.517 23.1934 380.517C23.7125 380.517 24.2104 380.311 24.5775 379.944C24.9446 379.577 25.1508 379.079 25.1508 378.56ZM150.256 411.351C150.256 408.99 149.791 406.653 148.888 404.472C147.985 402.291 146.661 400.309 144.991 398.64C143.322 396.971 141.341 395.647 139.16 394.744C136.979 393.84 134.641 393.375 132.281 393.375C129.92 393.375 127.583 393.84 125.402 394.744C123.221 395.647 121.239 396.971 119.57 398.64C117.901 400.309 116.577 402.291 115.674 404.472C114.77 406.653 114.305 408.99 114.305 411.351C114.305 416.118 116.199 420.69 119.57 424.061C122.941 427.432 127.513 429.326 132.281 429.326C137.048 429.326 141.62 427.432 144.991 424.061C148.363 420.69 150.256 416.118 150.256 411.351ZM429.503 411.357C429.503 406.588 427.609 402.014 424.237 398.642C420.864 395.27 416.29 393.375 411.521 393.375C406.752 393.375 402.179 395.27 398.806 398.642C395.434 402.014 393.54 406.588 393.54 411.357C393.54 416.126 395.434 420.7 398.806 424.072C402.179 427.444 406.752 429.339 411.521 429.339C416.29 429.339 420.864 427.444 424.237 424.072C427.609 420.7 429.503 416.126 429.503 411.357ZM147.96 399.305C147.768 399.194 147.734 399.231 147.857 399.414C152.131 405.709 152.986 412.106 150.423 418.605C145.657 430.676 130.336 434.834 120.203 426.729C119.653 426.286 119.606 426.335 120.063 426.876C121.948 429.124 123.449 431.725 124.566 434.68C124.596 434.76 124.65 434.828 124.719 434.876C124.789 434.924 124.872 434.949 124.956 434.949H201.247C201.421 434.949 201.447 434.887 201.323 434.764L164.925 398.365C164.775 398.216 164.615 398.205 164.445 398.333C159.251 402.29 153.756 402.615 147.96 399.305ZM410.639 430.9C394.531 430.132 386.458 411.651 396.29 399.081C396.341 399.022 396.333 399.011 396.265 399.049C390.222 402.593 384.565 402.344 379.293 398.301C379.178 398.216 379.07 398.224 378.967 398.326L342.632 434.661C342.449 434.849 342.487 434.943 342.748 434.943L418.769 434.949C419.017 434.949 419.185 434.836 419.275 434.61C420.422 431.723 421.919 429.134 423.765 426.844C424.145 426.379 424.096 426.328 423.618 426.691C419.622 429.719 415.296 431.122 410.639 430.9ZM468.819 443.841C468.819 437.258 466.204 430.945 461.549 426.29C456.895 421.636 450.582 419.021 443.999 419.021C437.416 419.021 431.103 421.636 426.448 426.29C421.794 430.945 419.179 437.258 419.179 443.841C419.179 450.424 421.794 456.737 426.448 461.391C431.103 466.046 437.416 468.661 443.999 468.661C450.582 468.661 456.895 466.046 461.549 461.391C466.204 456.737 468.819 450.424 468.819 443.841ZM124.617 443.841C124.617 437.258 122.002 430.945 117.348 426.29C112.693 421.636 106.38 419.021 99.7971 419.021C93.2143 419.021 86.9012 421.636 82.2465 426.29C77.5918 430.945 74.9768 437.258 74.9768 443.841C74.9768 450.424 77.5918 456.737 82.2465 461.391C86.9012 466.046 93.2143 468.661 99.7971 468.661C106.38 468.661 112.693 466.046 117.348 461.391C122.002 456.737 124.617 450.424 124.617 443.841ZM284.791 435.953C284.791 432.535 283.433 429.256 281.016 426.839C278.598 424.422 275.32 423.064 271.901 423.064C268.483 423.064 265.204 424.422 262.787 426.839C260.369 429.256 259.011 432.535 259.011 435.953C259.011 439.372 260.369 442.651 262.787 445.068C265.204 447.485 268.483 448.843 271.901 448.843C275.32 448.843 278.598 447.485 281.016 445.068C283.433 442.651 284.791 439.372 284.791 435.953ZM268.178 541.497L275.01 541.529C285.586 541.465 296.028 540.749 306.336 539.38C306.545 539.354 306.716 539.256 306.848 539.085C307.769 537.887 308.865 537.742 310.136 538.65C310.306 538.774 310.498 538.821 310.712 538.791C317.113 537.861 323.486 536.706 329.832 535.324C330.067 535.27 330.274 535.134 330.414 534.94C331.165 533.878 332.133 533.659 333.318 534.281C333.54 534.396 333.773 534.424 334.016 534.364C340.967 532.714 347.85 530.791 354.665 528.594C354.866 528.53 355.021 528.409 355.132 528.23C355.857 527.087 356.881 526.756 358.203 527.238C358.403 527.315 358.604 527.317 358.804 527.245C364.374 525.343 369.886 523.255 375.34 520.982C375.545 520.897 375.673 520.745 375.724 520.528C376.214 518.391 377.434 517.485 379.383 517.809C379.824 517.879 380.298 518.257 380.726 518.43C380.927 518.506 381.125 518.502 381.321 518.417C386.968 515.926 392.584 513.201 398.171 510.241C398.354 510.143 398.493 510.001 398.587 509.813C399.111 508.721 399.99 508.243 401.222 508.38C401.436 508.401 401.634 508.361 401.817 508.258C407.877 504.936 413.809 501.384 419.614 497.601C419.818 497.465 419.953 497.277 420.017 497.038C420.383 495.622 421.249 495.038 422.614 495.285C422.87 495.332 423.106 495.281 423.324 495.132C428.872 491.345 434.335 487.33 439.713 483.086C439.919 482.925 440.058 482.695 440.103 482.44C440.316 481.276 441.048 480.694 442.297 480.694C442.553 480.694 442.8 480.603 442.994 480.438C449.131 475.397 454.976 470.169 460.529 464.753C460.968 464.322 460.923 464.262 460.394 464.573C459.575 465.06 458.737 465.815 457.88 466.313C450.374 470.655 442.698 471.416 434.851 468.597C422.217 464.049 415.059 450.302 418.475 437.214C418.484 437.18 418.485 437.144 418.477 437.109C418.47 437.075 418.455 437.043 418.434 437.015C418.412 436.987 418.384 436.964 418.353 436.949C418.321 436.934 418.286 436.926 418.251 436.926H340.649C340.423 436.926 340.231 437.007 340.074 437.169L285.111 492.176C284.522 492.036 283.906 491.716 283.262 491.217L337.24 437.284C337.479 437.045 337.427 436.926 337.086 436.926H286.742C286.516 436.926 286.388 437.039 286.358 437.265C285.599 443.265 282.209 447.485 276.187 449.924C274.132 449.745 272.724 449.656 271.965 449.656C271.091 449.652 269.684 449.75 267.743 449.95C261.675 447.613 258.241 443.385 257.444 437.265C257.414 437.03 257.282 436.913 257.047 436.913L206.735 436.939C206.432 436.939 206.388 437.047 206.601 437.265L260.489 491.172C259.956 491.671 259.369 492.004 258.73 492.17L203.594 437.035C203.525 436.969 203.433 436.932 203.338 436.932L125.558 436.919C125.421 436.919 125.368 436.985 125.398 437.118C127.249 445.685 125.767 453.178 120.952 459.597C111.913 471.649 95.5303 473.6 83.6191 464.689C83.5509 464.637 83.4912 464.644 83.44 464.708L83.4336 464.714C83.3824 464.778 83.3846 464.838 83.44 464.893C90.8861 472.156 98.7266 478.967 106.962 485.325C107.132 485.453 107.322 485.504 107.531 485.479C109.237 485.27 110.173 485.984 110.339 487.622C110.361 487.835 110.457 488.003 110.627 488.127C115.783 491.935 121.058 495.573 126.453 499.04C126.632 499.156 126.826 499.196 127.035 499.162C128.549 498.91 129.509 499.512 129.914 500.966C129.969 501.171 130.089 501.328 130.272 501.439C136.32 505.171 142.507 508.659 148.836 511.905C149.058 512.02 149.286 512.041 149.521 511.969C150.847 511.576 151.758 512.035 152.252 513.344C152.339 513.578 152.513 513.768 152.738 513.875C158.291 516.583 163.664 519.007 168.859 521.148C169.072 521.238 169.275 521.217 169.466 521.084C171.053 519.946 172.479 520.031 173.746 521.34C174.239 521.852 174.296 522.562 174.603 523.215C174.697 523.406 174.842 523.541 175.038 523.618C180.83 525.848 186.696 527.869 192.636 529.682C192.837 529.746 193.035 529.737 193.231 529.656C194.472 529.162 195.438 529.452 196.129 530.526C196.244 530.701 196.402 530.818 196.602 530.878C203.264 532.823 209.991 534.501 216.785 535.913C216.994 535.959 217.188 535.923 217.367 535.804C218.676 534.959 219.749 535.173 220.585 536.443C220.7 536.623 220.862 536.731 221.071 536.77C227.643 538.036 234.374 539.064 241.266 539.853C241.492 539.879 241.697 539.821 241.88 539.68C242.912 538.904 243.867 539.006 244.746 539.987C244.912 540.171 245.117 540.273 245.36 540.294C252.815 541.066 260.421 541.467 268.178 541.497ZM380.624 520.681C380.624 520.177 380.424 519.694 380.068 519.338C379.711 518.982 379.228 518.781 378.724 518.781C378.22 518.781 377.737 518.982 377.381 519.338C377.024 519.694 376.824 520.177 376.824 520.681C376.824 520.931 376.873 521.178 376.969 521.408C377.064 521.639 377.204 521.848 377.381 522.025C377.557 522.201 377.767 522.341 377.997 522.437C378.228 522.532 378.475 522.581 378.724 522.581C378.974 522.581 379.221 522.532 379.451 522.437C379.682 522.341 379.891 522.201 380.068 522.025C380.244 521.848 380.384 521.639 380.479 521.408C380.575 521.178 380.624 520.931 380.624 520.681ZM173.445 523.259C173.445 522.754 173.245 522.269 172.887 521.911C172.53 521.554 172.045 521.353 171.539 521.353C171.034 521.353 170.549 521.554 170.191 521.911C169.834 522.269 169.633 522.754 169.633 523.259C169.633 523.765 169.834 524.25 170.191 524.607C170.549 524.965 171.034 525.166 171.539 525.166C172.045 525.166 172.53 524.965 172.887 524.607C173.245 524.25 173.445 523.765 173.445 523.259Z" fill="white"/>
</svg>
